<svg width="49" height="49" viewBox="0 0 49 49" fill="none" xmlns="http://www.w3.org/2000/svg">
<path d="M38.3146 46.145C36.3346 46.73 33.9946 47 31.2496 47H17.7496C15.0046 47 12.6646 46.73 10.6846 46.145C11.1796 40.295 17.1871 35.6824 24.4996 35.6824C31.8121 35.6824 37.8196 40.295 38.3146 46.145Z" stroke="white" stroke-width="3" stroke-linecap="round" stroke-linejoin="round"/>
<path d="M31.25 2H17.75C6.5 2 2 6.5 2 17.75V31.25C2 39.755 4.565 44.4125 10.685 46.145C11.18 40.295 17.1875 35.6824 24.5 35.6824C31.8125 35.6824 37.82 40.295 38.315 46.145C44.435 44.4125 47 39.755 47 31.25V17.75C47 6.5 42.5 2 31.25 2ZM24.5 29.3825C20.045 29.3825 16.445 25.76 16.445 21.305C16.445 16.85 20.045 13.25 24.5 13.25C28.955 13.25 32.555 16.85 32.555 21.305C32.555 25.76 28.955 29.3825 24.5 29.3825Z" stroke="white" stroke-width="3" stroke-linecap="round" stroke-linejoin="round"/>
<path d="M32.5548 21.305C32.5548 25.76 28.9548 29.3825 24.4998 29.3825C20.0448 29.3825 16.4448 25.76 16.4448 21.305C16.4448 16.85 20.0448 13.25 24.4998 13.25C28.9548 13.25 32.5548 16.85 32.5548 21.305Z" stroke="white" stroke-width="3" stroke-linecap="round" stroke-linejoin="round"/>
</svg>
