<svg width="25" height="25" viewBox="0 0 25 25" fill="none" xmlns="http://www.w3.org/2000/svg">
<path d="M11.4583 2.08331H9.375C4.16666 2.08331 2.08333 4.16665 2.08333 9.37498V15.625C2.08333 20.8333 4.16666 22.9166 9.375 22.9166H15.625C20.8333 22.9166 22.9167 20.8333 22.9167 15.625V13.5416" stroke="#14191C" stroke-width="1.5" stroke-linecap="round" stroke-linejoin="round"/>
<path d="M16.7083 3.14585L8.5 11.3542C8.1875 11.6667 7.875 12.2813 7.8125 12.7292L7.36458 15.8646C7.19791 17 8 17.7917 9.13541 17.6354L12.2708 17.1875C12.7083 17.125 13.3229 16.8125 13.6458 16.5L21.8542 8.29169C23.2708 6.87502 23.9375 5.22919 21.8542 3.14585C19.7708 1.06252 18.125 1.72919 16.7083 3.14585Z" stroke="#14191C" stroke-width="1.5" stroke-miterlimit="10" stroke-linecap="round" stroke-linejoin="round"/>
<path d="M15.5313 4.32281C16.2292 6.8124 18.1771 8.76032 20.6771 9.46865" stroke="#14191C" stroke-width="1.5" stroke-miterlimit="10" stroke-linecap="round" stroke-linejoin="round"/>
</svg>
