<svg width="49" height="46" viewBox="0 0 49 46" fill="none" xmlns="http://www.w3.org/2000/svg">
<path d="M24.4888 29.9737C28.2149 29.9737 31.2354 26.9531 31.2354 23.227C31.2354 19.501 28.2149 16.4804 24.4888 16.4804C20.7628 16.4804 17.7422 19.501 17.7422 23.227C17.7422 26.9531 20.7628 29.9737 24.4888 29.9737Z" stroke="white" stroke-width="3" stroke-miterlimit="10" stroke-linecap="round" stroke-linejoin="round"/>
<path d="M2 25.2059V21.2479C2 18.9091 3.91154 16.975 6.27286 16.975C10.3433 16.975 12.0075 14.0965 9.96102 10.5657C8.7916 8.54176 9.48876 5.91057 11.5352 4.74116L15.4258 2.51477C17.2024 1.4578 19.4963 2.08748 20.5532 3.8641L20.8006 4.29138C22.8246 7.82212 26.1529 7.82212 28.1994 4.29138L28.4468 3.8641C29.5037 2.08748 31.7976 1.4578 33.5742 2.51477L37.4648 4.74116C39.5112 5.91057 40.2084 8.54176 39.039 10.5657C36.9925 14.0965 38.6567 16.975 42.7271 16.975C45.066 16.975 47 18.8866 47 21.2479V25.2059C47 27.5448 45.0885 29.4788 42.7271 29.4788C38.6567 29.4788 36.9925 32.3573 39.039 35.8881C40.2084 37.9346 39.5112 40.5433 37.4648 41.7127L33.5742 43.9391C31.7976 44.996 29.5037 44.3663 28.4468 42.5897L28.1994 42.1624C26.1754 38.6317 22.8471 38.6317 20.8006 42.1624L20.5532 42.5897C19.4963 44.3663 17.2024 44.996 15.4258 43.9391L11.5352 41.7127C9.48876 40.5433 8.7916 37.9121 9.96102 35.8881C12.0075 32.3573 10.3433 29.4788 6.27286 29.4788C3.91154 29.4788 2 27.5448 2 25.2059Z" stroke="white" stroke-width="3" stroke-miterlimit="10" stroke-linecap="round" stroke-linejoin="round"/>
</svg>
