<svg width="25" height="25" viewBox="0 0 25 25" fill="none" xmlns="http://www.w3.org/2000/svg">
<path d="M21.875 6.22915C18.4062 5.8854 14.9167 5.70831 11.4375 5.70831C9.375 5.70831 7.3125 5.81248 5.25 6.02081L3.125 6.22915" stroke="#14191C" stroke-width="1.5" stroke-linecap="round" stroke-linejoin="round"/>
<path d="M8.85417 5.17706L9.08334 3.81248C9.25001 2.8229 9.375 2.08331 11.1354 2.08331H13.8646C15.625 2.08331 15.7604 2.86456 15.9167 3.8229L16.1458 5.17706" stroke="#14191C" stroke-width="1.5" stroke-linecap="round" stroke-linejoin="round"/>
<path d="M19.6354 9.52087L18.9584 20.0105C18.8438 21.6459 18.75 22.9167 15.8438 22.9167H9.15628C6.25003 22.9167 6.15628 21.6459 6.04169 20.0105L5.36461 9.52087" stroke="#14191C" stroke-width="1.5" stroke-linecap="round" stroke-linejoin="round"/>
<path d="M10.7604 17.1875H14.2292" stroke="#14191C" stroke-width="1.5" stroke-linecap="round" stroke-linejoin="round"/>
<path d="M9.89583 13.0208H15.1042" stroke="#14191C" stroke-width="1.5" stroke-linecap="round" stroke-linejoin="round"/>
</svg>
